<mxfile host="app.diagrams.net" agent="Mozilla/5.0 (Windows NT 10.0; Win64; x64) AppleWebKit/537.36 (KHTML, like Gecko) Chrome/136.0.0.0 Safari/537.36" version="27.0.6">
  <diagram name="Page-1" id="erIxfqzCgFmyuYqdTKYc">
    <mxGraphModel dx="970" dy="1102" grid="1" gridSize="10" guides="1" tooltips="1" connect="1" arrows="1" fold="1" page="1" pageScale="1" pageWidth="827" pageHeight="1169" math="0" shadow="0">
      <root>
        <mxCell id="0" />
        <mxCell id="1" parent="0" />
        <mxCell id="P1VySXXTBd-QQrxxytcH-57" value="&lt;font style=&quot;color: light-dark(rgb(255, 0, 0), rgb(237, 237, 237)); font-size: 16px;&quot;&gt;Diagramme d&#39;activité (Commander un produit)&lt;/font&gt;" style="swimlane;childLayout=stackLayout;resizeParent=1;resizeParentMax=0;startSize=20;html=1;" vertex="1" parent="1">
          <mxGeometry x="40" y="40" width="800" height="600" as="geometry" />
        </mxCell>
        <mxCell id="P1VySXXTBd-QQrxxytcH-58" value="Client" style="swimlane;startSize=20;html=1;" vertex="1" parent="P1VySXXTBd-QQrxxytcH-57">
          <mxGeometry y="20" width="200" height="580" as="geometry">
            <mxRectangle y="20" width="40" height="710" as="alternateBounds" />
          </mxGeometry>
        </mxCell>
        <mxCell id="P1VySXXTBd-QQrxxytcH-73" value="" style="ellipse;html=1;shape=startState;fillColor=#000000;strokeColor=#ff0000;" vertex="1" parent="P1VySXXTBd-QQrxxytcH-58">
          <mxGeometry x="85" y="60" width="30" height="30" as="geometry" />
        </mxCell>
        <mxCell id="P1VySXXTBd-QQrxxytcH-74" value="" style="edgeStyle=orthogonalEdgeStyle;html=1;verticalAlign=bottom;endArrow=open;endSize=8;strokeColor=#ff0000;rounded=0;entryX=0.5;entryY=0;entryDx=0;entryDy=0;" edge="1" source="P1VySXXTBd-QQrxxytcH-73" parent="P1VySXXTBd-QQrxxytcH-58" target="P1VySXXTBd-QQrxxytcH-75">
          <mxGeometry relative="1" as="geometry">
            <mxPoint x="100" y="150" as="targetPoint" />
          </mxGeometry>
        </mxCell>
        <mxCell id="P1VySXXTBd-QQrxxytcH-75" value="Passer Commande" style="rounded=1;whiteSpace=wrap;html=1;arcSize=40;fontColor=#000000;fillColor=#ffffc0;strokeColor=#ff0000;" vertex="1" parent="P1VySXXTBd-QQrxxytcH-58">
          <mxGeometry x="40" y="140" width="120" height="40" as="geometry" />
        </mxCell>
        <mxCell id="P1VySXXTBd-QQrxxytcH-76" value="" style="edgeStyle=orthogonalEdgeStyle;html=1;verticalAlign=bottom;endArrow=open;endSize=8;strokeColor=#ff0000;rounded=0;entryX=0.5;entryY=0;entryDx=0;entryDy=0;" edge="1" source="P1VySXXTBd-QQrxxytcH-75" parent="P1VySXXTBd-QQrxxytcH-58" target="P1VySXXTBd-QQrxxytcH-88">
          <mxGeometry relative="1" as="geometry">
            <mxPoint x="100" y="250" as="targetPoint" />
          </mxGeometry>
        </mxCell>
        <mxCell id="P1VySXXTBd-QQrxxytcH-88" value="Payer la facture" style="rounded=1;whiteSpace=wrap;html=1;arcSize=40;fontColor=#000000;fillColor=#ffffc0;strokeColor=#ff0000;" vertex="1" parent="P1VySXXTBd-QQrxxytcH-58">
          <mxGeometry x="40" y="220" width="120" height="40" as="geometry" />
        </mxCell>
        <mxCell id="P1VySXXTBd-QQrxxytcH-59" value="Caisse" style="swimlane;startSize=20;html=1;" vertex="1" parent="P1VySXXTBd-QQrxxytcH-57">
          <mxGeometry x="200" y="20" width="200" height="580" as="geometry" />
        </mxCell>
        <mxCell id="P1VySXXTBd-QQrxxytcH-77" value="Encaisser l&#39;argent" style="rounded=1;whiteSpace=wrap;html=1;arcSize=40;fontColor=#000000;fillColor=#ffffc0;strokeColor=#ff0000;" vertex="1" parent="P1VySXXTBd-QQrxxytcH-59">
          <mxGeometry x="40" y="220" width="120" height="40" as="geometry" />
        </mxCell>
        <mxCell id="P1VySXXTBd-QQrxxytcH-60" value="Vente" style="swimlane;startSize=20;html=1;" vertex="1" parent="P1VySXXTBd-QQrxxytcH-57">
          <mxGeometry x="400" y="20" width="200" height="580" as="geometry" />
        </mxCell>
        <mxCell id="P1VySXXTBd-QQrxxytcH-79" value="Traiter la commande" style="rounded=1;whiteSpace=wrap;html=1;arcSize=40;fontColor=#000000;fillColor=#ffffc0;strokeColor=#ff0000;" vertex="1" parent="P1VySXXTBd-QQrxxytcH-60">
          <mxGeometry x="40" y="220" width="120" height="40" as="geometry" />
        </mxCell>
        <mxCell id="P1VySXXTBd-QQrxxytcH-80" value="" style="html=1;verticalAlign=bottom;endArrow=open;endSize=8;strokeColor=#ff0000;rounded=0;entryX=0.5;entryY=0;entryDx=0;entryDy=0;" edge="1" source="P1VySXXTBd-QQrxxytcH-79" parent="P1VySXXTBd-QQrxxytcH-60" target="P1VySXXTBd-QQrxxytcH-81">
          <mxGeometry relative="1" as="geometry">
            <mxPoint x="100" y="360" as="targetPoint" />
          </mxGeometry>
        </mxCell>
        <mxCell id="P1VySXXTBd-QQrxxytcH-81" value="Facturer la commande" style="rounded=1;whiteSpace=wrap;html=1;arcSize=40;fontColor=#000000;fillColor=#ffffc0;strokeColor=#ff0000;" vertex="1" parent="P1VySXXTBd-QQrxxytcH-60">
          <mxGeometry x="40" y="340" width="120" height="40" as="geometry" />
        </mxCell>
        <mxCell id="P1VySXXTBd-QQrxxytcH-61" value="Entrepôt" style="swimlane;startSize=20;html=1;" vertex="1" parent="P1VySXXTBd-QQrxxytcH-57">
          <mxGeometry x="600" y="20" width="200" height="580" as="geometry" />
        </mxCell>
        <mxCell id="P1VySXXTBd-QQrxxytcH-83" value="Sortir les articles" style="rounded=1;whiteSpace=wrap;html=1;arcSize=40;fontColor=#000000;fillColor=#ffffc0;strokeColor=#ff0000;" vertex="1" parent="P1VySXXTBd-QQrxxytcH-61">
          <mxGeometry x="40" y="340" width="120" height="40" as="geometry" />
        </mxCell>
        <mxCell id="P1VySXXTBd-QQrxxytcH-84" value="" style="edgeStyle=orthogonalEdgeStyle;html=1;verticalAlign=bottom;endArrow=open;endSize=8;strokeColor=#ff0000;rounded=0;entryX=0.5;entryY=0;entryDx=0;entryDy=0;" edge="1" source="P1VySXXTBd-QQrxxytcH-83" parent="P1VySXXTBd-QQrxxytcH-61" target="P1VySXXTBd-QQrxxytcH-85">
          <mxGeometry relative="1" as="geometry">
            <mxPoint x="100" y="520" as="targetPoint" />
          </mxGeometry>
        </mxCell>
        <mxCell id="P1VySXXTBd-QQrxxytcH-85" value="Expédier la commande" style="rounded=1;whiteSpace=wrap;html=1;arcSize=40;fontColor=#000000;fillColor=#ffffc0;strokeColor=#ff0000;" vertex="1" parent="P1VySXXTBd-QQrxxytcH-61">
          <mxGeometry x="40" y="420" width="120" height="40" as="geometry" />
        </mxCell>
        <mxCell id="P1VySXXTBd-QQrxxytcH-86" value="" style="edgeStyle=orthogonalEdgeStyle;html=1;verticalAlign=bottom;endArrow=open;endSize=8;strokeColor=#ff0000;rounded=0;entryX=0.5;entryY=0;entryDx=0;entryDy=0;" edge="1" source="P1VySXXTBd-QQrxxytcH-85" parent="P1VySXXTBd-QQrxxytcH-61" target="P1VySXXTBd-QQrxxytcH-87">
          <mxGeometry relative="1" as="geometry">
            <mxPoint x="100" y="625" as="targetPoint" />
          </mxGeometry>
        </mxCell>
        <mxCell id="P1VySXXTBd-QQrxxytcH-87" value="" style="ellipse;html=1;shape=endState;fillColor=#000000;strokeColor=#ff0000;" vertex="1" parent="P1VySXXTBd-QQrxxytcH-61">
          <mxGeometry x="85" y="500" width="30" height="30" as="geometry" />
        </mxCell>
        <mxCell id="P1VySXXTBd-QQrxxytcH-89" value="" style="edgeStyle=orthogonalEdgeStyle;html=1;verticalAlign=bottom;endArrow=open;endSize=8;strokeColor=#ff0000;rounded=0;entryX=0;entryY=0.5;entryDx=0;entryDy=0;" edge="1" source="P1VySXXTBd-QQrxxytcH-88" parent="P1VySXXTBd-QQrxxytcH-57" target="P1VySXXTBd-QQrxxytcH-77">
          <mxGeometry relative="1" as="geometry">
            <mxPoint x="100" y="380" as="targetPoint" />
          </mxGeometry>
        </mxCell>
        <mxCell id="P1VySXXTBd-QQrxxytcH-78" value="" style="edgeStyle=orthogonalEdgeStyle;html=1;verticalAlign=bottom;endArrow=open;endSize=8;strokeColor=#ff0000;rounded=0;entryX=0;entryY=0.5;entryDx=0;entryDy=0;" edge="1" source="P1VySXXTBd-QQrxxytcH-77" parent="P1VySXXTBd-QQrxxytcH-57" target="P1VySXXTBd-QQrxxytcH-79">
          <mxGeometry relative="1" as="geometry">
            <mxPoint x="300" y="340" as="targetPoint" />
          </mxGeometry>
        </mxCell>
        <mxCell id="P1VySXXTBd-QQrxxytcH-82" value="" style="edgeStyle=orthogonalEdgeStyle;html=1;verticalAlign=bottom;endArrow=open;endSize=8;strokeColor=#ff0000;rounded=0;entryX=0;entryY=0.5;entryDx=0;entryDy=0;" edge="1" source="P1VySXXTBd-QQrxxytcH-81" parent="P1VySXXTBd-QQrxxytcH-57" target="P1VySXXTBd-QQrxxytcH-83">
          <mxGeometry relative="1" as="geometry">
            <mxPoint x="500" y="540" as="targetPoint" />
          </mxGeometry>
        </mxCell>
      </root>
    </mxGraphModel>
  </diagram>
</mxfile>
